<?xml version="1.0" encoding="utf-8"?>
<!-- Generator: Adobe Illustrator 22.1.0, SVG Export Plug-In . SVG Version: 6.00 Build 0)  -->
<svg version="1.1" id="Layer_1" xmlns="http://www.w3.org/2000/svg" xmlns:xlink="http://www.w3.org/1999/xlink" x="0px" y="0px"
	 viewBox="0 0 30.4 28.7" style="enable-background:new 0 0 30.4 28.7;" xml:space="preserve">
<style type="text/css">
	.st0{fill:#038384;}
</style>
<polygon class="st0" points="27.7,22.7 25.6,22.7 27.4,26.9 25.2,26.9 23.4,22.8 7.1,22.8 5.2,26.9 2.9,26.9 14.3,1.7 16,1.7 
	23.8,19 11,19 15.3,9.8 17.7,15.1 17.7,15.1 15,15.1 14.1,17.1 20.8,17.1 15.2,4.9 7.9,21.1 27,21.1 17.5,0 13,0 0,28.7 6.7,28.7 
	8.3,25 22,25 23.4,28.7 30.4,28.7 "/>
</svg>
